<svg width="16" height="16" viewBox="0 0 944 944" fill="none" xmlns="http://www.w3.org/2000/svg">
<path d="M617.3 165.9L472 249.8L617.3 333.7V165.9Z" fill="#4695EB"/>
<path d="M326.7 165.9V333.7L472 249.8L326.7 165.9Z" fill="#FF004A"/>
<path d="M617.3 333.7L472 249.8L326.7 333.7L472 417.6L617.3 333.7Z" fill="#091313"/>
<path d="M173.4 431.3L318.8 515.2V347.4L173.4 431.3Z" fill="#4695EB"/>
<path d="M318.8 683L464.1 599.1L318.8 515.2V683Z" fill="#FF004A"/>
<path d="M318.8 347.4V515.2L464.1 599.1V431.3L318.8 347.4Z" fill="#091313"/>
<path d="M625.2 683V515.2L479.9 599.1L625.2 683Z" fill="#4695EB"/>
<path d="M770.6 431.3L625.2 347.4V515.2L770.6 431.3Z" fill="#FF004A"/>
<path d="M479.9 599.1L625.2 515.2V347.4L479.9 431.3V599.1Z" fill="#091313"/>
<path d="M787.4 0H156.6C70.5 0 0 70.5 0 156.6V787.4C0 873.5 70.5 944 156.6 944H588.6L472 660.8L387.4 839.6H156.6C128.3 839.6 104.4 815.7 104.4 787.4V156.6C104.4 128.3 128.3 104.4 156.6 104.4H787.4C815.7 104.4 839.6 128.3 839.6 156.6V787.4C839.6 815.7 815.7 839.6 787.4 839.6H650.5L693.5 944H787.4C873.5 944 944 873.5 944 787.4V156.6C944 70.5 873.5 0 787.4 0Z" fill="#4695EB"/>
</svg>
