<svg width="16" height="16" viewBox="0 0 944 944" fill="none" xmlns="http://www.w3.org/2000/svg">
<path d="M617.048 166.463L472 250.206L617.048 333.949V166.463Z" fill="#4695EB"/>
<path d="M326.952 166.463V333.949L472 250.206L326.952 166.463Z" fill="#FF004A"/>
<path d="M617.048 333.949L472 250.206L326.952 333.949L472 417.692L617.048 333.949Z" fill="white"/>
<path d="M174.013 431.373L319.061 515.107V347.63L174.013 431.373Z" fill="#4695EB"/>
<path d="M319.061 682.593L464.099 598.85L319.061 515.107V682.593Z" fill="#FF004A"/>
<path d="M319.061 347.63V515.107L464.099 598.85V431.373L319.061 347.63Z" fill="white"/>
<path d="M624.939 682.593V515.107L479.901 598.85L624.939 682.593Z" fill="#4695EB"/>
<path d="M769.987 431.373L624.939 347.63V515.107L769.987 431.373Z" fill="#FF004A"/>
<path d="M479.901 598.85L624.939 515.107V347.63L479.901 431.373V598.85Z" fill="white"/>
<path d="M786.792 0.921051H157.206C71.2509 0.921051 0.921021 71.2509 0.921021 157.207V786.792C0.921021 872.747 71.2509 943.077 157.206 943.077H588.367L471.999 660.421L387.574 838.905H157.206C128.969 838.905 105.093 815.029 105.093 786.792V157.207C105.093 128.969 128.969 105.093 157.206 105.093H786.792C815.029 105.093 838.905 128.969 838.905 157.207V786.792C838.905 815.029 815.029 838.905 786.792 838.905H650.179L693.065 943.077H786.792C872.747 943.077 943.077 872.747 943.077 786.792V157.207C943.077 71.2509 872.747 0.921051 786.792 0.921051Z" fill="#4695EB"/>
</svg>
